<?xml version="1.0" standalone="no"?>
<!DOCTYPE svg PUBLIC "-//W3C//DTD SVG 20010904//EN"
 "http://www.w3.org/TR/2001/REC-SVG-20010904/DTD/svg10.dtd">
<svg version="1.0" xmlns="http://www.w3.org/2000/svg"
 width="667.000000pt" height="260.000000pt" viewBox="70 195 374.5 140"
 preserveAspectRatio="xMidYMid meet">

<g transform="translate(0.000000,500.000000) scale(0.100000,-0.100000)"
fill="#000000" stroke="none">
<path d="M3790 3036 c-233 -50 -399 -292 -359 -524 16 -88 24 -108 173 -377
268 -483 269 -485 287 -485 12 0 65 85 185 303 246 443 259 471 274 556 41
246 -127 485 -374 530 -73 13 -115 13 -186 -3z m150 -227 c104 -23 169 -99
178 -206 6 -83 -15 -140 -73 -191 -91 -80 -214 -83 -304 -5 -143 122 -86 359
96 402 51 12 51 12 103 0z"/>
<path d="M780 2491 l0 -551 235 0 c135 0 256 5 287 11 161 34 251 141 252 299
0 135 -63 228 -178 260 l-45 12 49 48 c105 102 107 288 5 386 -72 70 -106 77
-372 82 l-233 4 0 -551z m345 348 c61 -15 88 -48 88 -104 0 -78 -52 -123 -145
-124 l-38 -1 0 120 0 120 26 0 c14 0 45 -5 69 -11z m89 -463 c50 -21 76 -60
76 -115 0 -86 -45 -117 -181 -128 l-79 -6 0 132 0 131 75 0 c42 0 90 -6 109
-14z"/>
<path d="M3050 2490 l0 -550 125 0 125 0 0 550 0 550 -125 0 -125 0 0 -550z"/>
<path d="M2673 2639 c-156 -19 -247 -118 -228 -247 10 -64 60 -114 164 -163
119 -56 116 -54 119 -78 6 -40 -16 -54 -79 -49 -43 3 -71 13 -110 36 -28 18
-53 31 -54 30 -26 -35 -86 -152 -82 -162 8 -19 104 -63 169 -77 30 -7 87 -9
133 -6 193 14 284 96 273 248 -7 93 -74 161 -196 199 -104 32 -135 63 -100 98
18 18 95 14 158 -8 30 -10 55 -18 56 -17 1 1 18 35 38 74 l36 72 -28 14 c-61
31 -178 47 -269 36z"/>
<path d="M1607 2623 c-10 -10 -8 -358 3 -441 25 -192 151 -273 404 -259 176 9
273 64 312 178 17 47 19 85 19 289 l0 235 -117 3 -118 3 -1 -203 c0 -130 -4
-215 -12 -237 -33 -95 -186 -108 -234 -19 -15 28 -18 63 -21 246 l-3 212 -113
0 c-62 0 -116 -3 -119 -7z"/>
</g>
</svg>
